<svg width="10" height="10" viewBox="0 0 10 10" fill="none" xmlns="http://www.w3.org/2000/svg">
<path d="M8.3207 8.73375L7.51239 8.46291C7.35823 8.41291 7.19568 8.4129 7.04985 8.47956C6.68318 8.6504 6.26655 8.75041 5.83321 8.75041C5.03321 8.75041 4.30569 8.42665 3.78111 7.90415C3.70194 7.8254 3.76945 7.68832 3.87653 7.69707C6.02903 7.89248 7.89362 6.0279 7.6957 3.8754C7.6757 3.75624 7.82115 3.68623 7.9374 3.82123C8.74282 4.60915 8.99284 6.01873 8.47909 7.0504C8.30367 7.35873 8.66236 8.01789 8.7332 8.32123C8.81653 8.57539 8.57487 8.81708 8.3207 8.73375ZM4.16695 7.0829C3.73279 7.0829 3.31776 6.98582 2.94859 6.81374C2.80609 6.74582 2.64067 6.74582 2.48859 6.79415L1.67865 7.06624C1.42615 7.15041 1.1828 6.90748 1.26697 6.65456L1.53909 5.84457C1.58784 5.69249 1.58779 5.52707 1.51945 5.38457C1.34779 5.01499 1.25029 4.6004 1.25029 4.16623C1.25029 2.55582 2.55613 1.25 4.16655 1.25C5.77696 1.25 7.08281 2.55582 7.08281 4.16623C7.08281 5.77665 5.77737 7.0829 4.16695 7.0829ZM2.60405 3.54207C2.60405 3.71457 2.74405 3.85457 2.91655 3.85457H5.41655C5.58905 3.85457 5.72905 3.71457 5.72905 3.54207C5.72905 3.36957 5.58905 3.22957 5.41655 3.22957H2.91655C2.74405 3.22957 2.60405 3.36957 2.60405 3.54207ZM4.16655 5.10457C4.33905 5.10457 4.47905 4.96457 4.47905 4.79207C4.47905 4.61957 4.33905 4.47957 4.16655 4.47957H2.91655C2.74405 4.47957 2.60405 4.61957 2.60405 4.79207C2.60405 4.96457 2.74405 5.10457 2.91655 5.10457H4.16655Z" fill="#5271FF"/>
</svg>
