<svg width="14" height="15" viewBox="0 0 14 15" fill="none" xmlns="http://www.w3.org/2000/svg">
<path fill-rule="evenodd" clip-rule="evenodd" d="M2 5.03057V2.51172H4.19608V5.03057H2ZM0 1.51172C0 0.959434 0.447715 0.511719 1 0.511719H5.19608C5.74836 0.511719 6.19608 0.959434 6.19608 1.51172V6.03056C6.19608 6.58285 5.74836 7.03057 5.19608 7.03057H1C0.447716 7.03057 0 6.58285 0 6.03057V1.51172ZM2.00003 12.8532V10.3344H4.19611V12.8532H2.00003ZM2.96619e-05 9.3344C2.96619e-05 8.78212 0.447745 8.3344 1.00003 8.3344H5.19611C5.74839 8.3344 6.19611 8.78212 6.19611 9.3344V13.8532C6.19611 14.4055 5.74839 14.8532 5.19611 14.8532H1.00003C0.447745 14.8532 2.96619e-05 14.4055 2.96619e-05 13.8532V9.3344ZM9.43529 2.51172V5.03057H11.6314V2.51172H9.43529ZM8.43529 0.511719C7.883 0.511719 7.43529 0.959434 7.43529 1.51172V6.03057C7.43529 6.58285 7.883 7.03057 8.43529 7.03057H12.6314C13.1836 7.03057 13.6314 6.58285 13.6314 6.03056V1.51172C13.6314 0.959434 13.1836 0.511719 12.6314 0.511719H8.43529ZM9.43529 12.8533V10.3345H11.6314V12.8533H9.43529ZM7.43529 9.33447C7.43529 8.78219 7.883 8.33447 8.43529 8.33447H12.6314C13.1836 8.33447 13.6314 8.78219 13.6314 9.33447V13.8533C13.6314 14.4056 13.1836 14.8533 12.6314 14.8533H8.43529C7.883 14.8533 7.43529 14.4056 7.43529 13.8533V9.33447Z" fill="#ACACAC"/>
</svg>
