<svg width="22" height="23" viewBox="0 0 22 23" fill="none" xmlns="http://www.w3.org/2000/svg">
<mask id="path-1-inside-1_2192_1315" fill="white">
<path fill-rule="evenodd" clip-rule="evenodd" d="M11 0.5C4.92487 0.5 0 5.42487 0 11.5C0 17.5751 4.92487 22.5 11 22.5C17.0751 22.5 22 17.5751 22 11.5C22 5.42487 17.0751 0.5 11 0.5ZM2 11.5C2 6.52944 6.02944 2.5 11 2.5C15.9706 2.5 20 6.52944 20 11.5C20 16.4706 15.9706 20.5 11 20.5C6.02944 20.5 2 16.4706 2 11.5ZM7.75 11.5C7.75 12.1904 7.19036 12.75 6.5 12.75C5.80964 12.75 5.25 12.1904 5.25 11.5C5.25 10.8096 5.80964 10.25 6.5 10.25C7.19036 10.25 7.75 10.8096 7.75 11.5ZM12.25 11.5C12.25 12.1904 11.6904 12.75 11 12.75C10.3096 12.75 9.75 12.1904 9.75 11.5C9.75 10.8096 10.3096 10.25 11 10.25C11.6904 10.25 12.25 10.8096 12.25 11.5ZM15.5 12.75C16.1904 12.75 16.75 12.1904 16.75 11.5C16.75 10.8096 16.1904 10.25 15.5 10.25C14.8096 10.25 14.25 10.8096 14.25 11.5C14.25 12.1904 14.8096 12.75 15.5 12.75Z"/>
</mask>
<path fill-rule="evenodd" clip-rule="evenodd" d="M11 0.5C4.92487 0.5 0 5.42487 0 11.5C0 17.5751 4.92487 22.5 11 22.5C17.0751 22.5 22 17.5751 22 11.5C22 5.42487 17.0751 0.5 11 0.5ZM2 11.5C2 6.52944 6.02944 2.5 11 2.5C15.9706 2.5 20 6.52944 20 11.5C20 16.4706 15.9706 20.5 11 20.5C6.02944 20.5 2 16.4706 2 11.5ZM7.75 11.5C7.75 12.1904 7.19036 12.75 6.5 12.75C5.80964 12.75 5.25 12.1904 5.25 11.5C5.25 10.8096 5.80964 10.25 6.5 10.25C7.19036 10.25 7.75 10.8096 7.75 11.5ZM12.25 11.5C12.25 12.1904 11.6904 12.75 11 12.75C10.3096 12.75 9.75 12.1904 9.75 11.5C9.75 10.8096 10.3096 10.25 11 10.25C11.6904 10.25 12.25 10.8096 12.25 11.5ZM15.5 12.75C16.1904 12.75 16.75 12.1904 16.75 11.5C16.75 10.8096 16.1904 10.25 15.5 10.25C14.8096 10.25 14.25 10.8096 14.25 11.5C14.25 12.1904 14.8096 12.75 15.5 12.75Z" fill="white"/>
<path d="M1 11.5C1 5.97715 5.47715 1.5 11 1.5V-0.5C4.37258 -0.5 -1 4.87258 -1 11.5H1ZM11 21.5C5.47715 21.5 1 17.0228 1 11.5H-1C-1 18.1274 4.37258 23.5 11 23.5V21.5ZM21 11.5C21 17.0228 16.5228 21.5 11 21.5V23.5C17.6274 23.5 23 18.1274 23 11.5H21ZM11 1.5C16.5228 1.5 21 5.97715 21 11.5H23C23 4.87258 17.6274 -0.5 11 -0.5V1.5ZM11 1.5C5.47715 1.5 1 5.97715 1 11.5H3C3 7.08172 6.58172 3.5 11 3.5V1.5ZM21 11.5C21 5.97715 16.5228 1.5 11 1.5V3.5C15.4183 3.5 19 7.08172 19 11.5H21ZM11 21.5C16.5228 21.5 21 17.0228 21 11.5H19C19 15.9183 15.4183 19.5 11 19.5V21.5ZM1 11.5C1 17.0228 5.47715 21.5 11 21.5V19.5C6.58172 19.5 3 15.9183 3 11.5H1ZM6.5 13.75C7.74264 13.75 8.75 12.7426 8.75 11.5H6.75C6.75 11.6381 6.63807 11.75 6.5 11.75V13.75ZM4.25 11.5C4.25 12.7426 5.25736 13.75 6.5 13.75V11.75C6.36193 11.75 6.25 11.6381 6.25 11.5H4.25ZM6.5 9.25C5.25736 9.25 4.25 10.2574 4.25 11.5H6.25C6.25 11.3619 6.36193 11.25 6.5 11.25V9.25ZM8.75 11.5C8.75 10.2574 7.74264 9.25 6.5 9.25V11.25C6.63807 11.25 6.75 11.3619 6.75 11.5H8.75ZM11 13.75C12.2426 13.75 13.25 12.7426 13.25 11.5H11.25C11.25 11.6381 11.1381 11.75 11 11.75V13.75ZM8.75 11.5C8.75 12.7426 9.75736 13.75 11 13.75V11.75C10.8619 11.75 10.75 11.6381 10.75 11.5H8.75ZM11 9.25C9.75736 9.25 8.75 10.2574 8.75 11.5H10.75C10.75 11.3619 10.8619 11.25 11 11.25V9.25ZM13.25 11.5C13.25 10.2574 12.2426 9.25 11 9.25V11.25C11.1381 11.25 11.25 11.3619 11.25 11.5H13.25ZM15.75 11.5C15.75 11.6381 15.6381 11.75 15.5 11.75V13.75C16.7426 13.75 17.75 12.7426 17.75 11.5H15.75ZM15.5 11.25C15.6381 11.25 15.75 11.3619 15.75 11.5H17.75C17.75 10.2574 16.7426 9.25 15.5 9.25V11.25ZM15.25 11.5C15.25 11.3619 15.3619 11.25 15.5 11.25V9.25C14.2574 9.25 13.25 10.2574 13.25 11.5H15.25ZM15.5 11.75C15.3619 11.75 15.25 11.6381 15.25 11.5H13.25C13.25 12.7426 14.2574 13.75 15.5 13.75V11.75Z" fill="#666D80" mask="url(#path-1-inside-1_2192_1315)"/>
</svg>
