<svg width="16" height="16" viewBox="0 0 16 16" fill="none" xmlns="http://www.w3.org/2000/svg">
<path fill-rule="evenodd" clip-rule="evenodd" d="M10.1696 8.99974L10.1696 11.1695L10.1696 13.3393L5.82999 13.3393L5.82999 11.174L5.83 11.1695L5.82999 11.165L5.82999 8.99974L10.1696 8.99974ZM12.1696 10.1695L13.3394 10.1695L13.3394 8.99974L12.1696 8.99974L12.1696 10.1695ZM15.3394 11.1668L15.3394 11.1695L15.3394 11.1722L15.3394 12.9573C15.3394 14.2728 14.2729 15.3393 12.9573 15.3393L11.1708 15.3393L11.1696 15.3393L11.1683 15.3393L4.83058 15.3393L4.82999 15.3393L4.8294 15.3393L3.04224 15.3393C1.72668 15.3393 0.660215 14.2728 0.660215 12.9573L0.660215 11.1709L0.660214 11.1695L0.660215 11.1681L0.660215 8.00073L0.660214 7.99974L0.660214 7.99875L0.660214 4.82995L0.660214 3.04218C0.660214 1.72663 1.72668 0.660156 3.04224 0.660156L12.9573 0.660156C14.2729 0.660156 15.3394 1.72663 15.3394 3.04218L15.3394 4.82712C15.3394 4.82806 15.3394 4.829 15.3394 4.82995C15.3394 4.83089 15.3394 4.83183 15.3394 4.83278L15.3394 11.1668ZM13.3394 3.82995L13.3394 3.04218C13.3394 2.8312 13.1683 2.66016 12.9573 2.66016L12.1696 2.66016L12.1696 3.82995L13.3394 3.82995ZM12.1696 5.82995L13.3394 5.82995L13.3394 6.99974L12.1696 6.99974L12.1696 5.82995ZM12.1696 12.1695L13.3394 12.1695L13.3394 12.9573C13.3394 13.1683 13.1683 13.3393 12.9573 13.3393L12.1696 13.3393L12.1696 12.1695ZM2.66021 3.04218C2.66021 2.8312 2.83125 2.66016 3.04224 2.66016L3.82999 2.66016L3.82999 3.82995L2.66021 3.82995L2.66021 3.04218ZM5.82999 2.66016L5.82999 4.82521L5.83 4.82995L5.82999 4.83468L5.82999 6.99974L10.1696 6.99974L10.1696 2.66016L5.82999 2.66016ZM2.66021 5.82995L3.82999 5.82995L3.82999 6.99974L2.66021 6.99974L2.66021 5.82995ZM2.66021 12.1695L2.66021 12.9573C2.66021 13.1683 2.83125 13.3393 3.04224 13.3393L3.82999 13.3393L3.82999 12.1695L2.66021 12.1695ZM3.82999 10.1695L2.66021 10.1695L2.66022 8.99974L3.82999 8.99974L3.82999 10.1695Z" fill="#ACACAC"/>
</svg>
