<svg width="20" height="20" viewBox="0 0 20 20" fill="none" xmlns="http://www.w3.org/2000/svg">
<path d="M10.7415 4.90039H4.25816C2.83316 4.90039 1.6665 6.06705 1.6665 7.49205V16.9587C1.6665 18.1671 2.53317 18.6837 3.5915 18.092L6.8665 16.267C7.2165 16.0754 7.78317 16.0754 8.12484 16.267L11.3998 18.092C12.4582 18.6837 13.3248 18.1671 13.3248 16.9587V7.49205C13.3332 6.06705 12.1665 4.90039 10.7415 4.90039Z" stroke="#1F2232" stroke-width="1.5" stroke-linecap="round" stroke-linejoin="round"/>
<path d="M13.3332 7.49205V16.9587C13.3332 18.1671 12.4665 18.6754 11.4082 18.092L8.13318 16.267C7.78318 16.0754 7.2165 16.0754 6.8665 16.267L3.5915 18.092C2.53317 18.6754 1.6665 18.1671 1.6665 16.9587V7.49205C1.6665 6.06705 2.83316 4.90039 4.25816 4.90039H10.7415C12.1665 4.90039 13.3332 6.06705 13.3332 7.49205Z" stroke="#1F2232" stroke-width="1.5" stroke-linecap="round" stroke-linejoin="round"/>
<path d="M18.3332 4.25865V13.7253C18.3332 14.9337 17.4665 15.442 16.4082 14.8586L13.3332 13.142V7.49198C13.3332 6.06698 12.1665 4.90033 10.7415 4.90033H6.6665V4.25865C6.6665 2.83365 7.83316 1.66699 9.25816 1.66699H15.7415C17.1665 1.66699 18.3332 2.83365 18.3332 4.25865Z" stroke="#1F2232" stroke-width="1.5" stroke-linecap="round" stroke-linejoin="round"/>
</svg>
