<svg width="8" height="6" viewBox="0 0 8 6" fill="none" xmlns="http://www.w3.org/2000/svg">
<path d="M5.14585 2.99967C5.14585 3.63176 4.6321 4.14551 4.00002 4.14551C3.36793 4.14551 2.85418 3.63176 2.85418 2.99967C2.85418 2.85426 2.88415 2.71633 2.93373 2.58799C3.01457 2.65216 3.11209 2.69633 3.22334 2.69633C3.48459 2.69633 3.69667 2.48425 3.69667 2.223C3.69667 2.11175 3.6525 2.01422 3.58834 1.93339C3.71667 1.88381 3.8546 1.85384 4.00002 1.85384C4.6321 1.85384 5.14585 2.36759 5.14585 2.99967ZM7.58003 3.61511C7.06878 4.47095 5.92043 5.91634 4.00002 5.91634C2.0796 5.91634 0.93125 4.47095 0.42 3.61511C0.193333 3.23595 0.193333 2.7634 0.42 2.38424C0.93125 1.5284 2.0796 0.0830078 4.00002 0.0830078C5.92043 0.0830078 7.06878 1.5284 7.58003 2.38424C7.8067 2.7634 7.8067 3.23595 7.58003 3.61511ZM5.77085 2.99967C5.77085 2.02342 4.97668 1.22884 4.00002 1.22884C3.02335 1.22884 2.22918 2.02342 2.22918 2.99967C2.22918 3.97592 3.02335 4.77051 4.00002 4.77051C4.97668 4.77051 5.77085 3.97592 5.77085 2.99967Z" fill="#5271FF"/>
</svg>
