<svg width="20" height="20" viewBox="0 0 20 20" fill="none" xmlns="http://www.w3.org/2000/svg">
<path d="M19 3.25H15.441C14.54 3.25 14.502 3.136 14.255 2.396L14.053 1.789C13.746 0.869001 12.889 0.25 11.919 0.25H8.08099C7.11099 0.25 6.25299 0.868001 5.94699 1.789L5.745 2.396C5.49799 3.137 5.45999 3.25 4.55899 3.25H1C0.586 3.25 0.25 3.586 0.25 4C0.25 4.414 0.586 4.75 1 4.75H2.298L3.065 16.249C3.213 18.474 4.57701 19.75 6.80701 19.75H13.194C15.423 19.75 16.787 18.474 16.936 16.249L17.703 4.75H19C19.414 4.75 19.75 4.414 19.75 4C19.75 3.586 19.414 3.25 19 3.25ZM7.37 2.263C7.473 1.956 7.75799 1.75 8.08099 1.75H11.919C12.242 1.75 12.528 1.956 12.63 2.263L12.832 2.87C12.876 3.001 12.92 3.128 12.968 3.25H7.03C7.078 3.127 7.12299 3 7.16699 2.87L7.37 2.263ZM15.438 16.149C15.343 17.582 14.629 18.25 13.193 18.25H6.806C5.37 18.25 4.657 17.583 4.561 16.149L3.80099 4.75H4.55801C4.68301 4.75 4.78699 4.737 4.89899 4.729C4.93299 4.734 4.96399 4.75 4.99899 4.75H14.999C15.035 4.75 15.065 4.734 15.099 4.729C15.211 4.737 15.315 4.75 15.44 4.75H16.197L15.438 16.149ZM12.53 10.53L11.06 12L12.53 13.47C12.823 13.763 12.823 14.238 12.53 14.531C12.384 14.677 12.192 14.751 12 14.751C11.808 14.751 11.616 14.678 11.47 14.531L10 13.061L8.53 14.531C8.384 14.677 8.192 14.751 8 14.751C7.808 14.751 7.616 14.678 7.47 14.531C7.177 14.238 7.177 13.763 7.47 13.47L8.94 12L7.47 10.53C7.177 10.237 7.177 9.76199 7.47 9.46899C7.763 9.17599 8.23801 9.17599 8.53101 9.46899L10.001 10.939L11.471 9.46899C11.764 9.17599 12.239 9.17599 12.532 9.46899C12.825 9.76199 12.823 10.237 12.53 10.53Z" fill="#8697AC"/>
</svg>
