<svg width="10" height="10" viewBox="0 0 10 10" fill="none" xmlns="http://www.w3.org/2000/svg">
<path d="M7.8125 7.64558C7.8125 8.49225 7.34126 8.95809 6.48626 8.95809H3.51374C2.65874 8.95809 2.1875 8.49183 2.1875 7.64558C2.1875 6.69225 2.72915 5.57893 4.25624 5.57893H5.74336C7.27086 5.57851 7.8125 6.69225 7.8125 7.64558ZM5.00336 4.79641C5.81252 4.79641 6.47044 4.141 6.47044 3.33558C6.47044 2.52975 5.81211 1.87476 5.00336 1.87476C4.19461 1.87476 3.53668 2.53016 3.53668 3.33558C3.53668 4.141 4.19419 4.79641 5.00336 4.79641ZM7.82918 3.72061H7.15836C7.10002 3.72061 7.05001 3.76227 7.03751 3.81644C6.94584 4.21227 6.73749 4.56642 6.44999 4.83725C6.37916 4.90392 6.42084 5.02058 6.51667 5.04558C7.25417 5.22058 7.76666 5.65393 8.07083 6.20393C8.09166 6.24976 8.13334 6.2789 8.18751 6.2789H8.36248C9.01664 6.2789 9.375 5.9206 9.375 5.2706C9.375 4.5581 8.97085 3.72061 7.82918 3.72061ZM7.29584 1.04142C6.88 1.04142 6.51707 1.26932 6.32665 1.6064C6.31123 1.6339 6.31207 1.66433 6.3179 1.69058C6.32415 1.71808 6.33627 1.7327 6.3621 1.75436C6.77002 2.09811 7.04211 2.59602 7.08669 3.15894C7.08919 3.1906 7.10002 3.21018 7.11919 3.2306C7.13836 3.25102 7.16708 3.26348 7.205 3.26682C7.23458 3.26932 7.265 3.27099 7.29584 3.27099C7.90834 3.27099 8.40836 2.77101 8.40836 2.15435C8.40836 1.54143 7.90834 1.04142 7.29584 1.04142ZM0.625 5.2706C0.625 5.9206 0.983356 6.2789 1.63752 6.2789H1.81249C1.86666 6.2789 1.90834 6.24976 1.92917 6.20393C2.23334 5.65393 2.74583 5.22058 3.48333 5.04558C3.57916 5.02058 3.62084 4.90392 3.55001 4.83725C3.26251 4.56642 3.05416 4.21227 2.96249 3.81644C2.94999 3.76227 2.89998 3.72061 2.84164 3.72061H2.17082C1.02915 3.72061 0.625 4.5581 0.625 5.2706ZM1.59164 2.15394C1.59164 2.77061 2.09166 3.27058 2.70416 3.27058C2.735 3.27058 2.76542 3.26891 2.795 3.26641C2.83334 3.26307 2.86164 3.25061 2.88081 3.23019C2.89998 3.20978 2.91081 3.1902 2.91331 3.15853C2.95789 2.59561 3.22998 2.09766 3.6379 1.75391C3.66332 1.73224 3.67585 1.71768 3.6821 1.69018C3.68793 1.66393 3.68877 1.63391 3.67335 1.606C3.48252 1.26891 3.12 1.04102 2.70416 1.04102C2.09166 1.04143 1.59164 1.54144 1.59164 2.15394Z" fill="#5271FF"/>
</svg>
