<svg width="12" height="12" viewBox="0 0 12 12" fill="none" xmlns="http://www.w3.org/2000/svg">
<path d="M11.6977 5.26175L11.3473 4.91142C11.2034 4.76744 11.1166 4.44431 11.1694 4.24755L11.2973 3.76884C11.3685 3.5045 11.3317 3.22735 11.1938 2.9894C11.0562 2.75105 10.835 2.58108 10.5707 2.5103L10.0916 2.38192C9.89482 2.32913 9.65846 2.09278 9.60528 1.89602L9.4773 1.41732C9.33413 0.881823 8.75585 0.544691 8.21835 0.690262L7.74005 0.818236C7.55569 0.867026 7.21335 0.777444 7.07618 0.640672L6.72545 0.289542C6.33873 -0.0963807 5.65967 -0.0967806 5.27214 0.289942L4.92141 0.640672C4.78424 0.778644 4.44071 0.867826 4.25755 0.818636L3.77884 0.690262C3.24095 0.54709 2.66307 0.882623 2.5195 1.41732L2.39192 1.89562C2.33913 2.09278 2.10238 2.32953 1.90562 2.38192L1.42731 2.5099C1.16257 2.58108 0.941011 2.75145 0.803439 2.9898C0.665867 3.22815 0.629474 3.5045 0.70066 3.76804L0.828634 4.24715C0.881423 4.44431 0.795441 4.76704 0.65067 4.91102L0.30074 5.26135C0.106779 5.45571 0 5.71365 0 5.9888C0 6.26394 0.106379 6.52189 0.29994 6.71545L0.64987 7.06538C0.793841 7.20975 0.880624 7.53329 0.828234 7.73005L0.70026 8.20875C0.629474 8.4731 0.666267 8.75025 0.803839 8.9882C0.941411 9.22655 1.16297 9.39652 1.42731 9.4669L1.90522 9.59488C2.10278 9.64807 2.33913 9.88482 2.39232 10.0812L2.52029 10.5599C2.66347 11.0942 3.24135 11.4297 3.77924 11.2865L4.25755 11.1586C4.44231 11.1094 4.78424 11.199 4.92181 11.3361L5.27214 11.6865C5.4657 11.8808 5.72405 11.9876 5.9992 11.9876C6.27434 11.9876 6.53229 11.8808 6.72585 11.6873L7.07698 11.3369C7.21415 11.199 7.55169 11.1086 7.74125 11.1594L8.21875 11.2869C8.30514 11.3101 8.39432 11.3221 8.4835 11.3221H8.4839C8.94861 11.3221 9.35773 11.009 9.4777 10.5599L9.60528 10.0824C9.65846 9.88522 9.89522 9.64847 10.092 9.59568L10.5707 9.4677C11.1182 9.32013 11.4441 8.75504 11.2965 8.20916L11.169 7.73045C11.1162 7.53329 11.2026 7.21016 11.3465 7.06618L11.6973 6.71585C12.0984 6.31393 12.098 5.66207 11.6977 5.26175ZM8.68106 4.67186L5.4817 7.87122C5.40372 7.94921 5.30134 7.9884 5.19896 7.9884C5.09658 7.9884 4.9942 7.94921 4.91621 7.87122L3.31654 6.27154C3.16017 6.11517 3.16017 5.86243 3.31654 5.70606C3.4729 5.54969 3.72565 5.54969 3.88202 5.70606L5.19896 7.02299L8.11557 4.10638C8.27194 3.95001 8.52469 3.95001 8.68106 4.10638C8.83743 4.26275 8.83743 4.51549 8.68106 4.67186Z" fill="#3F8DFB"/>
</svg>
